<svg preserveAspectRatio="none" overflow="visible" style="display: block;" width="6.67138" height="6.67138" viewBox="0 0 6.67138 6.67138" fill="none" xmlns="http://www.w3.org/2000/svg">
<g id="triangle-alert" clip-path="url(#clip0_0_55)">
<path id="Vector" d="M3.33513 2.50153V3.61342M3.33513 4.72532H3.33791M6.03993 5.00336L3.81614 1.11172C3.76765 1.02616 3.69734 0.954995 3.61236 0.905482C3.52739 0.85597 3.43081 0.829883 3.33247 0.829883C3.23412 0.829883 3.13754 0.85597 3.05257 0.905482C2.9676 0.954995 2.89728 1.02616 2.84879 1.11172L0.624998 5.00336C0.575986 5.08824 0.550287 5.18457 0.550504 5.28258C0.550721 5.3806 0.576847 5.47682 0.626234 5.56148C0.675621 5.64614 0.746514 5.71625 0.831726 5.76468C0.916938 5.81312 1.01344 5.83816 1.11145 5.83728H5.55904C5.65658 5.83718 5.75238 5.81142 5.83681 5.76258C5.92125 5.71375 5.99135 5.64356 6.04008 5.55906C6.0888 5.47456 6.11444 5.37873 6.11442 5.28119C6.11439 5.18365 6.0887 5.08783 6.03993 5.00336Z" stroke="white" stroke-width="0.75053" stroke-linecap="round"/>
</g>
<defs>
<clipPath id="clip0_0_55">
<rect width="6.67138" height="6.67138" fill="white"/>
</clipPath>
</defs>
</svg>
